<svg width="192" height="192" viewBox="0 0 192 192" xmlns="http://www.w3.org/2000/svg">
  <defs>
    <linearGradient id="bg" x1="0%" y1="0%" x2="100%" y2="100%">
      <stop offset="0%" style="stop-color:#1b4332"/>
      <stop offset="50%" style="stop-color:#2d6a4f"/>
      <stop offset="100%" style="stop-color:#40916c"/>
    </linearGradient>
    <linearGradient id="shine" x1="0%" y1="0%" x2="100%" y2="100%">
      <stop offset="0%" style="stop-color:rgba(255,255,255,0.18)"/>
      <stop offset="100%" style="stop-color:rgba(255,255,255,0)"/>
    </linearGradient>
  </defs>
  <rect width="192" height="192" rx="42" fill="url(#bg)"/>
  <rect width="192" height="192" rx="42" fill="url(#shine)"/>
  <circle cx="96" cy="110" r="62" fill="rgba(255,255,255,0.12)"/>
  <circle cx="96" cy="110" r="50" fill="rgba(255,255,255,0.08)"/>
  <rect x="48" y="48" width="8" height="58" rx="4" fill="rgba(255,255,255,0.75)"/>
  <rect x="44" y="42" width="5" height="22" rx="2.5" fill="rgba(255,255,255,0.5)"/>
  <rect x="51" y="42" width="5" height="22" rx="2.5" fill="rgba(255,255,255,0.5)"/>
  <rect x="58" y="42" width="5" height="22" rx="2.5" fill="rgba(255,255,255,0.5)"/>
  <path d="M96 78 C76 78 70 100 80 112 C86 120 106 120 112 112 C122 100 116 78 96 78Z" fill="rgba(255,255,255,0.92)"/>
  <path d="M96 78 L96 114" stroke="#2d6a4f" stroke-width="4" stroke-linecap="round"/>
  <path d="M96 90 C90 86 84 90 82 96" stroke="#2d6a4f" stroke-width="2.5" stroke-linecap="round" fill="none"/>
  <path d="M96 100 C102 96 108 100 110 106" stroke="#2d6a4f" stroke-width="2.5" stroke-linecap="round" fill="none"/>
  <circle cx="138" cy="54" r="26" fill="#95d5b2"/>
  <circle cx="138" cy="54" r="22" fill="#b7e4c7"/>
  <polyline points="126,54 134,62 150,44" stroke="#1b4332" stroke-width="6" stroke-linecap="round" stroke-linejoin="round" fill="none"/>
</svg>
